<svg width="32" height="32" viewBox="0 0 32 32" fill="none" xmlns="http://www.w3.org/2000/svg">
<path d="M7.27083 10.3542V31H0.395833V10.3542H7.27083ZM7.70833 3.97917C7.72222 4.99306 7.37153 5.84028 6.65625 6.52083C5.94097 7.20139 5 7.54167 3.83333 7.54167H3.79167C2.65278 7.54167 1.73611 7.20139 1.04167 6.52083C0.347222 5.84028 0 4.99306 0 3.97917C0 2.95139 0.357639 2.1007 1.07292 1.42708C1.78819 0.753474 2.72222 0.416668 3.875 0.416668C5.02778 0.416668 5.95139 0.753474 6.64583 1.42708C7.34028 2.1007 7.69444 2.95139 7.70833 3.97917ZM32 19.1667V31H25.1458V19.9583C25.1458 18.5 24.8646 17.3576 24.3021 16.5313C23.7396 15.7049 22.8611 15.2917 21.6667 15.2917C20.7917 15.2917 20.059 15.5313 19.4688 16.0104C18.8785 16.4896 18.4375 17.0833 18.1458 17.7917C17.9931 18.2083 17.9167 18.7708 17.9167 19.4792V31H11.0625C11.0903 25.4583 11.1042 20.9653 11.1042 17.5208C11.1042 14.0764 11.0972 12.0208 11.0833 11.3542L11.0625 10.3542H17.9167V13.3542H17.875C18.1528 12.9097 18.4375 12.5208 18.7292 12.1875C19.0208 11.8542 19.4132 11.4931 19.9063 11.1042C20.3993 10.7153 21.0035 10.4132 21.7188 10.1979C22.434 9.98264 23.2292 9.875 24.1042 9.875C26.4792 9.875 28.3889 10.6632 29.8333 12.2396C31.2778 13.816 32 16.125 32 19.1667Z" fill="black"/>
</svg>
