<svg width="32" height="26" viewBox="0 0 32 26" fill="none" xmlns="http://www.w3.org/2000/svg">
<g clip-path="url(#clip0_102_10)">
<path d="M31.7602 3.04C30.8669 4.34667 29.7869 5.46 28.5202 6.38C28.5336 6.56667 28.5402 6.84667 28.5402 7.22C28.5402 8.95333 28.2869 10.6833 27.7802 12.41C27.2736 14.1367 26.5036 15.7933 25.4702 17.38C24.4369 18.9667 23.2069 20.37 21.7802 21.59C20.3536 22.81 18.6336 23.7833 16.6202 24.51C14.6069 25.2367 12.4536 25.6 10.1602 25.6C6.5469 25.6 3.24023 24.6333 0.240234 22.7C0.706901 22.7533 1.2269 22.78 1.80023 22.78C4.80023 22.78 7.47357 21.86 9.82023 20.02C8.42023 19.9933 7.1669 19.5633 6.06023 18.73C4.95357 17.8967 4.19357 16.8333 3.78023 15.54C4.22023 15.6067 4.6269 15.64 5.00023 15.64C5.57357 15.64 6.14023 15.5667 6.70023 15.42C5.2069 15.1133 3.97023 14.37 2.99023 13.19C2.01023 12.01 1.52023 10.64 1.52023 9.08V9C2.4269 9.50667 3.40023 9.78 4.44023 9.82C3.56023 9.23333 2.86023 8.46667 2.34023 7.52C1.82023 6.57333 1.56023 5.54667 1.56023 4.44C1.56023 3.26667 1.85357 2.18 2.44023 1.18C4.05357 3.16667 6.0169 4.75667 8.33023 5.95C10.6436 7.14333 13.1202 7.80667 15.7602 7.94C15.6536 7.43333 15.6002 6.94 15.6002 6.46C15.6002 4.67333 16.2302 3.15 17.4902 1.89C18.7502 0.63 20.2736 0 22.0602 0C23.9269 0 25.5002 0.68 26.7802 2.04C28.2336 1.76 29.6002 1.24 30.8802 0.48C30.3869 2.01333 29.4402 3.2 28.0402 4.04C29.2802 3.90667 30.5202 3.57333 31.7602 3.04Z" fill="black"/>
</g>
<defs>
<clipPath id="clip0_102_10">
<rect width="32" height="25.6" fill="white"/>
</clipPath>
</defs>
</svg>
