<svg width="32" height="23" viewBox="0 0 32 23" fill="none" xmlns="http://www.w3.org/2000/svg">
<g clip-path="url(#clip0_102_6)">
<path d="M12.6963 15.5714L21.3392 11.1071L12.6963 6.58929V15.5714ZM15.9999 0.178574C17.9999 0.178574 19.9315 0.205359 21.7946 0.258931C23.6577 0.312502 25.0237 0.36905 25.8928 0.428574L27.1963 0.500002C27.2083 0.500002 27.3094 0.508931 27.4999 0.526788C27.6904 0.544645 27.8273 0.562502 27.9106 0.580359C27.994 0.598216 28.1338 0.625002 28.3303 0.660716C28.5267 0.696431 28.6963 0.74405 28.8392 0.803574C28.9821 0.863097 29.1487 0.940478 29.3392 1.03572C29.5297 1.13095 29.7142 1.24703 29.8928 1.38393C30.0713 1.52084 30.244 1.67857 30.4106 1.85715C30.4821 1.92857 30.5743 2.03869 30.6874 2.1875C30.8005 2.33631 30.9731 2.68453 31.2053 3.23215C31.4374 3.77976 31.5952 4.38095 31.6785 5.03572C31.7737 5.79762 31.8481 6.61012 31.9017 7.47322C31.9553 8.33631 31.988 9.01191 31.9999 9.5V12.6429C32.0118 14.3691 31.9047 16.0952 31.6785 17.8214C31.5952 18.4762 31.4463 19.0685 31.2321 19.5982C31.0178 20.128 30.8273 20.4941 30.6606 20.6964L30.4106 21C30.244 21.1786 30.0713 21.3363 29.8928 21.4732C29.7142 21.6101 29.5297 21.7232 29.3392 21.8125C29.1487 21.9018 28.9821 21.9762 28.8392 22.0357C28.6963 22.0952 28.5267 22.1429 28.3303 22.1786C28.1338 22.2143 27.991 22.2411 27.9017 22.2589C27.8124 22.2768 27.6755 22.2946 27.491 22.3125C27.3065 22.3304 27.2083 22.3393 27.1963 22.3393C24.2083 22.5655 20.4761 22.6786 15.9999 22.6786C13.5356 22.6548 11.3957 22.6161 9.58027 22.5625C7.7648 22.5089 6.57134 22.4643 5.99992 22.4286L5.12492 22.3571L4.48206 22.2857C4.05349 22.2262 3.72908 22.1667 3.50885 22.1071C3.28861 22.0476 2.98504 21.9226 2.59813 21.7321C2.21123 21.5417 1.87492 21.2976 1.5892 21C1.51777 20.9286 1.42551 20.8185 1.31242 20.6696C1.19932 20.5208 1.0267 20.1726 0.794559 19.625C0.562416 19.0774 0.404678 18.4762 0.321345 17.8214C0.226107 17.0595 0.151702 16.247 0.0981306 15.3839C0.0445592 14.5208 0.0118211 13.8452 -8.37052e-05 13.3571V10.2143C-0.0119885 8.4881 0.0951544 6.76191 0.321345 5.03572C0.404678 4.38095 0.553488 3.78869 0.767773 3.25893C0.982059 2.72917 1.17254 2.3631 1.3392 2.16072L1.5892 1.85715C1.75587 1.67857 1.92849 1.52084 2.10706 1.38393C2.28563 1.24703 2.47015 1.13095 2.66063 1.03572C2.85111 0.940478 3.01777 0.863097 3.16063 0.803574C3.30349 0.74405 3.47313 0.696431 3.66956 0.660716C3.86599 0.625002 4.00587 0.598216 4.0892 0.580359C4.17254 0.562502 4.30944 0.544645 4.49992 0.526788C4.69039 0.508931 4.79158 0.500002 4.80349 0.500002C7.79158 0.285716 11.5237 0.178574 15.9999 0.178574Z" fill="black"/>
</g>
<defs>
<clipPath id="clip0_102_6">
<rect width="32" height="22.8571" fill="white"/>
</clipPath>
</defs>
</svg>
